<mxfile host="65bd71144e">
    <diagram id="XuE6fs28x3YZ3o2rZron" name="Page-1">
        <mxGraphModel dx="935" dy="534" grid="1" gridSize="10" guides="1" tooltips="1" connect="1" arrows="1" fold="1" page="0" pageScale="1" pageWidth="1169" pageHeight="827" math="0" shadow="0">
            <root>
                <mxCell id="0"/>
                <mxCell id="1" parent="0"/>
                <mxCell id="35" value="" style="group" parent="1" vertex="1" connectable="0">
                    <mxGeometry x="630" y="160" width="220" height="440" as="geometry"/>
                </mxCell>
                <mxCell id="33" value="&lt;span style=&quot;border-color: var(--border-color);&quot;&gt;&lt;b&gt;SWRLParser&lt;/b&gt;&lt;/span&gt;" style="shape=umlLifeline;perimeter=lifelinePerimeter;whiteSpace=wrap;html=1;container=1;collapsible=0;recursiveResize=0;outlineConnect=0;fontSize=12;" parent="35" vertex="1">
                    <mxGeometry width="220" height="440" as="geometry"/>
                </mxCell>
                <mxCell id="34" value="" style="html=1;points=[];perimeter=orthogonalPerimeter;fontSize=12;" parent="33" vertex="1">
                    <mxGeometry x="105" y="60" width="10" height="270" as="geometry"/>
                </mxCell>
                <mxCell id="27" value="" style="endArrow=openThin;html=1;rounded=0;align=center;verticalAlign=top;endFill=0;labelBackgroundColor=none;endSize=6;fontSize=12;dashed=1;" parent="35" source="21" edge="1">
                    <mxGeometry relative="1" as="geometry">
                        <mxPoint x="-250" y="36.666666666666664" as="sourcePoint"/>
                        <mxPoint y="29.333333333333336" as="targetPoint"/>
                    </mxGeometry>
                </mxCell>
                <mxCell id="29" value="&lt;font style=&quot;font-size: 8px;&quot;&gt;&amp;lt;&amp;lt;creates(this)&amp;gt;&amp;gt;&lt;/font&gt;" style="edgeLabel;html=1;align=center;verticalAlign=middle;resizable=0;points=[];fontSize=8;" parent="27" vertex="1" connectable="0">
                    <mxGeometry x="0.241" y="1" relative="1" as="geometry">
                        <mxPoint x="-14" as="offset"/>
                    </mxGeometry>
                </mxCell>
                <mxCell id="79" value="" style="html=1;points=[];perimeter=orthogonalPerimeter;fontSize=7;" parent="35" vertex="1">
                    <mxGeometry x="110" y="180" width="10" height="20" as="geometry"/>
                </mxCell>
                <mxCell id="80" style="edgeStyle=orthogonalEdgeStyle;rounded=0;html=1;fontSize=7;exitX=0.991;exitY=0.009;exitDx=0;exitDy=0;exitPerimeter=0;entryX=1.043;entryY=0.977;entryDx=0;entryDy=0;entryPerimeter=0;" parent="35" source="79" target="79" edge="1">
                    <mxGeometry relative="1" as="geometry">
                        <mxPoint x="150.00000000000003" y="229.37" as="targetPoint"/>
                        <mxPoint x="150.52" y="200" as="sourcePoint"/>
                        <Array as="points">
                            <mxPoint x="170" y="180"/>
                            <mxPoint x="170" y="200"/>
                            <mxPoint x="120" y="200"/>
                        </Array>
                    </mxGeometry>
                </mxCell>
                <mxCell id="81" value="parseAtom(SWRLToken.getValue())" style="edgeLabel;html=1;align=center;verticalAlign=middle;resizable=0;points=[];fontSize=7;" parent="80" vertex="1" connectable="0">
                    <mxGeometry x="-0.3481" y="1" relative="1" as="geometry">
                        <mxPoint x="68" y="11" as="offset"/>
                    </mxGeometry>
                </mxCell>
                <mxCell id="43" value="" style="group" parent="1" vertex="1" connectable="0">
                    <mxGeometry x="1010" y="221" width="140" height="379" as="geometry"/>
                </mxCell>
                <mxCell id="44" value="&lt;span style=&quot;border-color: var(--border-color);&quot;&gt;&lt;b&gt;SWRLTokenizer&lt;/b&gt;&lt;/span&gt;" style="shape=umlLifeline;perimeter=lifelinePerimeter;whiteSpace=wrap;html=1;container=1;collapsible=0;recursiveResize=0;outlineConnect=0;fontSize=12;" parent="43" vertex="1">
                    <mxGeometry width="140" height="379" as="geometry"/>
                </mxCell>
                <mxCell id="48" value="" style="endArrow=openThin;html=1;rounded=0;align=center;verticalAlign=top;endFill=0;labelBackgroundColor=none;endSize=6;fontSize=12;dashed=1;" parent="43" source="33" edge="1">
                    <mxGeometry relative="1" as="geometry">
                        <mxPoint x="-159.0909090909091" y="31.583333333333332" as="sourcePoint"/>
                        <mxPoint y="25.26666666666667" as="targetPoint"/>
                    </mxGeometry>
                </mxCell>
                <mxCell id="49" value="&amp;lt;&amp;lt;creates&amp;gt;" style="edgeLabel;html=1;align=center;verticalAlign=middle;resizable=0;points=[];fontSize=8;" parent="48" vertex="1" connectable="0">
                    <mxGeometry x="0.241" y="1" relative="1" as="geometry">
                        <mxPoint x="-14" as="offset"/>
                    </mxGeometry>
                </mxCell>
                <mxCell id="45" value="" style="html=1;points=[];perimeter=orthogonalPerimeter;fontSize=12;" parent="43" vertex="1">
                    <mxGeometry x="66.81818181818181" y="79" width="6.363636363636363" height="21" as="geometry"/>
                </mxCell>
                <mxCell id="87" value="" style="group" parent="1" vertex="1" connectable="0">
                    <mxGeometry x="1190" y="184" width="160" height="417" as="geometry"/>
                </mxCell>
                <mxCell id="88" value="&lt;span style=&quot;border-color: var(--border-color);&quot;&gt;&lt;b&gt;SWRLParserSupport&lt;/b&gt;&lt;/span&gt;" style="shape=umlLifeline;perimeter=lifelinePerimeter;whiteSpace=wrap;html=1;container=1;collapsible=0;recursiveResize=0;outlineConnect=0;fontSize=12;" parent="87" vertex="1">
                    <mxGeometry width="160" height="417" as="geometry"/>
                </mxCell>
                <mxCell id="92" value="" style="html=1;points=[];perimeter=orthogonalPerimeter;fontSize=8;" parent="88" vertex="1">
                    <mxGeometry x="76.36363636363636" y="236.99988215488213" width="7.272727272727273" height="18.954545454545453" as="geometry"/>
                </mxCell>
                <mxCell id="21" value="&lt;span style=&quot;border-color: var(--border-color);&quot;&gt;&lt;b&gt;DefaultSWRLAPIOWLOntology&lt;/b&gt;&lt;/span&gt;" style="shape=umlLifeline;perimeter=lifelinePerimeter;whiteSpace=wrap;html=1;container=1;collapsible=0;recursiveResize=0;outlineConnect=0;fontSize=12;" parent="1" vertex="1">
                    <mxGeometry x="220" y="120" width="220" height="480" as="geometry"/>
                </mxCell>
                <mxCell id="71" value="" style="html=1;points=[];perimeter=orthogonalPerimeter;fontSize=8;" parent="21" vertex="1">
                    <mxGeometry x="105" y="410" width="10" height="30" as="geometry"/>
                </mxCell>
                <mxCell id="72" style="edgeStyle=none;html=1;entryX=0.961;entryY=0.994;entryDx=0;entryDy=0;entryPerimeter=0;fontSize=8;rounded=0;" parent="21" target="71" edge="1">
                    <mxGeometry relative="1" as="geometry">
                        <mxPoint x="110.10784313725492" y="410" as="sourcePoint"/>
                        <Array as="points">
                            <mxPoint x="130" y="410"/>
                            <mxPoint x="130" y="439"/>
                            <mxPoint x="130" y="440"/>
                        </Array>
                    </mxGeometry>
                </mxCell>
                <mxCell id="73" value="addSWRLRule(SWRLRule)" style="edgeLabel;html=1;align=center;verticalAlign=middle;resizable=0;points=[];fontSize=8;" parent="72" vertex="1" connectable="0">
                    <mxGeometry x="-0.3269" relative="1" as="geometry">
                        <mxPoint x="51" y="10" as="offset"/>
                    </mxGeometry>
                </mxCell>
                <mxCell id="31" style="edgeStyle=none;html=1;fontSize=10;endArrow=blockThin;endFill=1;entryX=0.319;entryY=0;entryDx=0;entryDy=0;entryPerimeter=0;" parent="1" source="21" target="34" edge="1">
                    <mxGeometry relative="1" as="geometry">
                        <mxPoint x="520" y="220" as="targetPoint"/>
                        <mxPoint x="335" y="254.08142857142855" as="sourcePoint"/>
                    </mxGeometry>
                </mxCell>
                <mxCell id="32" value="&lt;font style=&quot;font-size: 8px;&quot;&gt;parseRule(String rule, Boolean interactiveParseOnly, String ruleName, String comment)&amp;nbsp;&lt;/font&gt;" style="edgeLabel;html=1;align=center;verticalAlign=middle;resizable=0;points=[];fontSize=8;" parent="31" vertex="1" connectable="0">
                    <mxGeometry x="-0.2535" y="2" relative="1" as="geometry">
                        <mxPoint x="45" y="-4" as="offset"/>
                    </mxGeometry>
                </mxCell>
                <mxCell id="60" value="" style="html=1;verticalAlign=bottom;labelBackgroundColor=none;endArrow=block;endFill=1;entryX=-0.024;entryY=0;entryDx=0;entryDy=0;entryPerimeter=0;" parent="1" source="34" target="45" edge="1">
                    <mxGeometry width="160" relative="1" as="geometry">
                        <mxPoint x="745.05" y="303.70952" as="sourcePoint"/>
                        <mxPoint x="1010" y="293" as="targetPoint"/>
                    </mxGeometry>
                </mxCell>
                <mxCell id="61" value="&lt;font style=&quot;font-size: 8px;&quot;&gt;getToken()&lt;/font&gt;" style="edgeLabel;html=1;align=center;verticalAlign=middle;resizable=0;points=[];fontSize=8;" parent="60" vertex="1" connectable="0">
                    <mxGeometry x="-0.0886" y="2" relative="1" as="geometry">
                        <mxPoint y="-5" as="offset"/>
                    </mxGeometry>
                </mxCell>
                <mxCell id="62" style="edgeStyle=none;html=1;fontSize=10;dashed=1;exitX=0.467;exitY=1.013;exitDx=0;exitDy=0;exitPerimeter=0;endArrow=openThin;endFill=0;" parent="1" source="45" target="34" edge="1">
                    <mxGeometry relative="1" as="geometry">
                        <mxPoint x="744.8700000000001" y="322.52174" as="targetPoint"/>
                    </mxGeometry>
                </mxCell>
                <mxCell id="63" value="SWRLToken" style="edgeLabel;html=1;align=center;verticalAlign=middle;resizable=0;points=[];fontSize=8;" parent="62" vertex="1" connectable="0">
                    <mxGeometry x="0.0946" y="1" relative="1" as="geometry">
                        <mxPoint y="5" as="offset"/>
                    </mxGeometry>
                </mxCell>
                <mxCell id="66" style="edgeStyle=none;html=1;fontSize=10;dashed=1;exitX=-0.011;exitY=1;exitDx=0;exitDy=0;exitPerimeter=0;endArrow=openThin;endFill=0;" parent="1" edge="1">
                    <mxGeometry relative="1" as="geometry">
                        <mxPoint x="734.8899999999999" y="459" as="sourcePoint"/>
                        <mxPoint x="330.02380952380963" y="459" as="targetPoint"/>
                        <Array as="points"/>
                    </mxGeometry>
                </mxCell>
                <mxCell id="67" value="SWRLRule" style="edgeLabel;html=1;align=center;verticalAlign=middle;resizable=0;points=[];fontSize=8;" parent="66" vertex="1" connectable="0">
                    <mxGeometry x="0.0946" y="1" relative="1" as="geometry">
                        <mxPoint y="5" as="offset"/>
                    </mxGeometry>
                </mxCell>
                <mxCell id="107" style="edgeStyle=none;html=1;fontSize=10;dashed=1;endArrow=openThin;endFill=0;" parent="1" source="21" edge="1">
                    <mxGeometry relative="1" as="geometry">
                        <mxPoint x="274.8699999999999" y="590" as="sourcePoint"/>
                        <mxPoint x="100" y="590" as="targetPoint"/>
                        <Array as="points"/>
                    </mxGeometry>
                </mxCell>
                <mxCell id="108" value="SWRLRule" style="edgeLabel;html=1;align=center;verticalAlign=middle;resizable=0;points=[];fontSize=8;" parent="107" vertex="1" connectable="0">
                    <mxGeometry x="0.0946" y="1" relative="1" as="geometry">
                        <mxPoint y="5" as="offset"/>
                    </mxGeometry>
                </mxCell>
                <mxCell id="105" style="edgeStyle=none;html=1;fontSize=10;dashed=1;endArrow=openThin;endFill=0;" parent="1" edge="1">
                    <mxGeometry relative="1" as="geometry">
                        <mxPoint x="740" y="490" as="sourcePoint"/>
                        <mxPoint x="331.02380952380963" y="490" as="targetPoint"/>
                        <Array as="points"/>
                    </mxGeometry>
                </mxCell>
                <mxCell id="106" value="null" style="edgeLabel;html=1;align=center;verticalAlign=middle;resizable=0;points=[];fontSize=8;" parent="105" vertex="1" connectable="0">
                    <mxGeometry x="0.0946" y="1" relative="1" as="geometry">
                        <mxPoint y="5" as="offset"/>
                    </mxGeometry>
                </mxCell>
                <mxCell id="75" value="" style="ellipse;html=1;fillColor=strokeColor;fontSize=7;" parent="1" vertex="1">
                    <mxGeometry x="100" y="180" width="4" height="4" as="geometry"/>
                </mxCell>
                <mxCell id="76" value="" style="endArrow=open;html=1;rounded=0;align=center;verticalAlign=top;endFill=0;labelBackgroundColor=none;endSize=6;fontSize=7;" parent="1" source="75" target="21" edge="1">
                    <mxGeometry relative="1" as="geometry">
                        <mxPoint x="264" y="182" as="targetPoint"/>
                    </mxGeometry>
                </mxCell>
                <mxCell id="77" value="createSWRLRule(String ruleName, String rule, String comment, boolean isActive)" style="edgeLabel;html=1;align=center;verticalAlign=middle;resizable=0;points=[];fontSize=7;" parent="76" vertex="1" connectable="0">
                    <mxGeometry x="-0.1715" y="1" relative="1" as="geometry">
                        <mxPoint y="-11" as="offset"/>
                    </mxGeometry>
                </mxCell>
                <mxCell id="86" style="rounded=0;html=1;exitX=0;exitY=0;exitDx=0;exitDy=0;exitPerimeter=0;fontSize=8;fontStyle=0;dashed=1;endArrow=none;endFill=0;entryX=0.515;entryY=0.48;entryDx=0;entryDy=0;entryPerimeter=0;" parent="1" source="84" target="33" edge="1">
                    <mxGeometry relative="1" as="geometry"/>
                </mxCell>
                <mxCell id="84" value="The new atom is then added to the list of head atoms (&lt;i&gt;headAtoms&lt;/i&gt;) or the list of body atoms (&lt;i&gt;bodyAtoms&lt;/i&gt;)" style="shape=note2;boundedLbl=1;whiteSpace=wrap;html=1;size=13;verticalAlign=top;align=center;fontSize=8;" parent="1" vertex="1">
                    <mxGeometry x="480" y="290" width="180" height="58" as="geometry"/>
                </mxCell>
                <mxCell id="94" style="edgeStyle=none;rounded=0;html=1;fontSize=8;startArrow=none;startFill=0;endArrow=openThin;endFill=0;exitX=0.271;exitY=0.995;exitDx=0;exitDy=0;exitPerimeter=0;dashed=1;entryX=0.988;entryY=0.815;entryDx=0;entryDy=0;entryPerimeter=0;" parent="1" source="92" edge="1" target="34">
                    <mxGeometry relative="1" as="geometry">
                        <mxPoint x="744.9599999999998" y="439.0799999999999" as="targetPoint"/>
                    </mxGeometry>
                </mxCell>
                <mxCell id="99" value="SWRLRule" style="edgeLabel;html=1;align=center;verticalAlign=middle;resizable=0;points=[];fontSize=8;" parent="94" vertex="1" connectable="0">
                    <mxGeometry x="0.3801" y="-1" relative="1" as="geometry">
                        <mxPoint x="-1" y="7" as="offset"/>
                    </mxGeometry>
                </mxCell>
                <mxCell id="97" value="" style="html=1;verticalAlign=bottom;labelBackgroundColor=none;endArrow=block;endFill=1;rounded=0;fontSize=8;entryX=-0.01;entryY=0.033;entryDx=0;entryDy=0;entryPerimeter=0;exitX=0.988;exitY=0.74;exitDx=0;exitDy=0;exitPerimeter=0;" parent="1" target="92" edge="1" source="34">
                    <mxGeometry width="160" relative="1" as="geometry">
                        <mxPoint x="750" y="420" as="sourcePoint"/>
                        <mxPoint x="1070" y="399" as="targetPoint"/>
                    </mxGeometry>
                </mxCell>
                <mxCell id="98" value="createSWRLRule(ruleName, headAtoms, bodyAtoms, comment, isEnable: True)" style="edgeLabel;html=1;align=center;verticalAlign=middle;resizable=0;points=[];fontSize=8;" parent="97" vertex="1" connectable="0">
                    <mxGeometry x="-0.7982" relative="1" as="geometry">
                        <mxPoint x="115" y="-8" as="offset"/>
                    </mxGeometry>
                </mxCell>
                <mxCell id="112" value="" style="endArrow=openThin;html=1;rounded=0;align=center;verticalAlign=top;endFill=0;labelBackgroundColor=none;endSize=6;fontSize=12;dashed=1;" parent="1" edge="1">
                    <mxGeometry relative="1" as="geometry">
                        <mxPoint x="739.9999999999999" y="207" as="sourcePoint"/>
                        <mxPoint x="1190" y="205" as="targetPoint"/>
                    </mxGeometry>
                </mxCell>
                <mxCell id="113" value="&lt;font style=&quot;font-size: 8px;&quot;&gt;&amp;lt;&amp;lt;creates(DefaultSWRLAPIOntology)&amp;gt;&amp;gt;&lt;/font&gt;" style="edgeLabel;html=1;align=center;verticalAlign=middle;resizable=0;points=[];fontSize=8;" parent="112" vertex="1" connectable="0">
                    <mxGeometry x="0.241" y="1" relative="1" as="geometry">
                        <mxPoint x="-14" as="offset"/>
                    </mxGeometry>
                </mxCell>
                <mxCell id="114" value="sub_diagrams" parent="0"/>
                <mxCell id="117" value="" style="group" vertex="1" connectable="0" parent="114">
                    <mxGeometry x="686" y="260" width="624" height="247" as="geometry"/>
                </mxCell>
                <mxCell id="115" value="loop" style="shape=umlFrame;whiteSpace=wrap;html=1;width=40;height=15;boundedLbl=1;verticalAlign=middle;align=left;spacingLeft=5;fontSize=10;fillColor=#dae8fc;strokeColor=#6C8EBF;" vertex="1" parent="117">
                    <mxGeometry y="7" width="624" height="240" as="geometry"/>
                </mxCell>
                <mxCell id="116" value="&lt;font color=&quot;#6c8ebf&quot; style=&quot;font-size: 9px;&quot;&gt;[tokenizer.hasMoreTokens()]&lt;/font&gt;" style="text;html=1;align=left;verticalAlign=middle;resizable=0;points=[];autosize=1;strokeColor=none;fillColor=none;fontSize=10;fontColor=default;" vertex="1" parent="117">
                    <mxGeometry x="60" y="2" width="131" height="24" as="geometry"/>
                </mxCell>
                <mxCell id="119" value="" style="group" vertex="1" connectable="0" parent="114">
                    <mxGeometry x="700" y="367.0009090909091" width="601" height="132.9990909090909" as="geometry"/>
                </mxCell>
                <mxCell id="120" value="" style="group;fillColor=none;strokeColor=#82B366;" vertex="1" connectable="0" parent="119">
                    <mxGeometry y="12.99909090909091" width="601" height="120" as="geometry"/>
                </mxCell>
                <mxCell id="121" value="" style="group" vertex="1" connectable="0" parent="120">
                    <mxGeometry width="600.9999999999999" height="119.99999999999999" as="geometry"/>
                </mxCell>
                <mxCell id="122" value="&lt;font style=&quot;font-size: 10px;&quot;&gt;if&lt;/font&gt;" style="shape=umlFrame;whiteSpace=wrap;html=1;width=30;height=15;boundedLbl=1;verticalAlign=middle;align=left;spacingLeft=5;fillColor=#d5e8d4;strokeColor=#82B366;" vertex="1" parent="121">
                    <mxGeometry width="600.9999999999999" height="119.99999999999999" as="geometry"/>
                </mxCell>
                <mxCell id="123" value="" style="line;strokeWidth=1;rotatable=0;dashed=0;labelPosition=right;align=left;verticalAlign=middle;spacingTop=0;spacingLeft=6;points=[];portConstraint=eastwest;fontSize=10;strokeColor=#82B366;" vertex="1" parent="121">
                    <mxGeometry y="89.45454545454545" width="600.9999999999999" height="10.909090909090908" as="geometry"/>
                </mxCell>
                <mxCell id="124" value="&lt;p style=&quot;line-height: 100%; font-size: 9px;&quot;&gt;&lt;font color=&quot;#82b366&quot;&gt;[at leat one atom]&lt;/font&gt;&lt;/p&gt;" style="text;html=1;align=left;verticalAlign=middle;resizable=0;points=[];autosize=1;strokeColor=none;fillColor=none;fontSize=9;spacing=0;" vertex="1" parent="121">
                    <mxGeometry x="48" y="-9.99909090909091" width="84" height="35" as="geometry"/>
                </mxCell>
            </root>
        </mxGraphModel>
    </diagram>
</mxfile>